<svg width="60" height="60" viewBox="0 0 60 60" fill="none" xmlns="http://www.w3.org/2000/svg">
<path d="M12.0624 44.875C14.5416 42.9792 17.3124 41.4844 20.3749 40.3906C23.4374 39.2969 26.6458 38.75 29.9999 38.75C33.3541 38.75 36.5624 39.2969 39.6249 40.3906C42.6874 41.4844 45.4582 42.9792 47.9374 44.875C49.6388 42.882 50.9635 40.6215 51.9114 38.0938C52.8593 35.566 53.3332 32.8681 53.3332 30C53.3332 23.5347 51.0607 18.0295 46.5155 13.4844C41.9704 8.93925 36.4652 6.66668 29.9999 6.66668C23.5346 6.66668 18.0294 8.93925 13.4843 13.4844C8.93915 18.0295 6.66658 23.5347 6.66658 30C6.66658 32.8681 7.14054 35.566 8.08846 38.0938C9.03638 40.6215 10.361 42.882 12.0624 44.875ZM29.9999 32.9167C27.1319 32.9167 24.7135 31.9323 22.7447 29.9636C20.776 27.9948 19.7916 25.5764 19.7916 22.7083C19.7916 19.8403 20.776 17.4219 22.7447 15.4531C24.7135 13.4844 27.1319 12.5 29.9999 12.5C32.868 12.5 35.2864 13.4844 37.2551 15.4531C39.2239 17.4219 40.2082 19.8403 40.2082 22.7083C40.2082 25.5764 39.2239 27.9948 37.2551 29.9636C35.2864 31.9323 32.868 32.9167 29.9999 32.9167ZM29.9999 59.1667C25.9652 59.1667 22.1735 58.401 18.6249 56.8698C15.0763 55.3385 11.9895 53.2604 9.3645 50.6354C6.7395 48.0104 4.66138 44.9236 3.13013 41.375C1.59888 37.8264 0.833252 34.0347 0.833252 30C0.833252 25.9653 1.59888 22.1736 3.13013 18.625C4.66138 15.0764 6.7395 11.9896 9.3645 9.36459C11.9895 6.73959 15.0763 4.66147 18.6249 3.13022C22.1735 1.59897 25.9652 0.833344 29.9999 0.833344C34.0346 0.833344 37.8263 1.59897 41.3749 3.13022C44.9235 4.66147 48.0103 6.73959 50.6353 9.36459C53.2603 11.9896 55.3385 15.0764 56.8697 18.625C58.401 22.1736 59.1666 25.9653 59.1666 30C59.1666 34.0347 58.401 37.8264 56.8697 41.375C55.3385 44.9236 53.2603 48.0104 50.6353 50.6354C48.0103 53.2604 44.9235 55.3385 41.3749 56.8698C37.8263 58.401 34.0346 59.1667 29.9999 59.1667ZM29.9999 53.3333C32.5763 53.3333 35.0069 52.9566 37.2916 52.2031C39.5763 51.4497 41.6666 50.3681 43.5624 48.9583C41.6666 47.5486 39.5763 46.467 37.2916 45.7136C35.0069 44.9601 32.5763 44.5833 29.9999 44.5833C27.4235 44.5833 24.993 44.9601 22.7083 45.7136C20.4235 46.467 18.3333 47.5486 16.4374 48.9583C18.3333 50.3681 20.4235 51.4497 22.7083 52.2031C24.993 52.9566 27.4235 53.3333 29.9999 53.3333ZM29.9999 27.0833C31.2638 27.0833 32.3089 26.6701 33.1353 25.8438C33.9617 25.0174 34.3749 23.9722 34.3749 22.7083C34.3749 21.4445 33.9617 20.3993 33.1353 19.5729C32.3089 18.7465 31.2638 18.3333 29.9999 18.3333C28.736 18.3333 27.6909 18.7465 26.8645 19.5729C26.0381 20.3993 25.6249 21.4445 25.6249 22.7083C25.6249 23.9722 26.0381 25.0174 26.8645 25.8438C27.6909 26.6701 28.736 27.0833 29.9999 27.0833Z" fill="#1C1B1F"/>
</svg>
