<svg width="56" height="43" viewBox="0 0 56 43" fill="none" xmlns="http://www.w3.org/2000/svg">
<path d="M54.245 12.2618C53.8362 11.9053 53.3306 11.6783 52.7924 11.6098C52.2543 11.5412 51.7079 11.6341 51.2227 11.8766L39.847 17.5407L30.3495 1.76515C30.1054 1.36034 29.7608 1.02548 29.3491 0.793035C28.9375 0.56059 28.4728 0.438446 28.0001 0.438446C27.5273 0.438446 27.0626 0.56059 26.651 0.793035C26.2393 1.02548 25.8947 1.36034 25.6506 1.76515L16.1531 17.5475L4.78193 11.8834C4.29786 11.643 3.75356 11.5509 3.21735 11.6187C2.68114 11.6866 2.1769 11.9112 1.7679 12.2645C1.35891 12.6179 1.06338 13.0841 0.918412 13.6048C0.77344 14.1255 0.785479 14.6774 0.95302 15.1912L9.33583 40.8744C9.42012 41.1324 9.56128 41.3682 9.74889 41.5643C9.9365 41.7605 10.1658 41.912 10.4198 42.0077C10.6738 42.1034 10.9461 42.1408 11.2165 42.1172C11.4869 42.0936 11.7485 42.0095 11.9821 41.8712C12.0387 41.8373 17.8319 38.5 28.0001 38.5C38.1682 38.5 43.9614 41.8373 44.0135 41.869C44.2471 42.0086 44.5092 42.0938 44.7803 42.1182C45.0514 42.1427 45.3245 42.1058 45.5794 42.0102C45.8343 41.9147 46.0643 41.7629 46.2525 41.5663C46.4407 41.3697 46.5822 41.1332 46.6665 40.8744L55.0493 15.198C55.2217 14.684 55.2373 14.1304 55.094 13.6075C54.9508 13.0847 54.6553 12.6162 54.245 12.2618ZM43.8594 37.7818C41.1407 36.6286 35.7213 34.875 28.0001 34.875C20.2788 34.875 14.8594 36.6286 12.1407 37.7818L5.05154 16.0703L15.2627 21.1612C15.8808 21.466 16.5906 21.5283 17.2523 21.3358C17.914 21.1433 18.4797 20.71 18.8379 20.1212L28.0001 4.89171L37.1622 20.1167C37.5207 20.7045 38.086 21.1371 38.747 21.3295C39.4081 21.5219 40.1172 21.4602 40.7351 21.1566L50.9486 16.0703L43.8594 37.7818ZM38.8456 30.5318C38.7716 30.9511 38.5524 31.3309 38.2264 31.6048C37.9003 31.8786 37.4883 32.0289 37.0625 32.0294C36.9562 32.0292 36.8501 32.0201 36.7454 32.0022C30.956 31.0083 25.0396 31.0083 19.2502 32.0022C18.7767 32.0857 18.2894 31.9777 17.8956 31.702C17.5017 31.4262 17.2335 31.0053 17.15 30.5318C17.0665 30.0583 17.1744 29.571 17.4502 29.1771C17.7259 28.7833 18.1469 28.5151 18.6204 28.4316C24.8265 27.3652 31.1691 27.3652 37.3752 28.4316C37.8478 28.5145 38.2682 28.7815 38.5442 29.1739C38.8203 29.5663 38.9295 30.0522 38.8479 30.525L38.8456 30.5318Z" fill="black"/>
</svg>
