<?xml version="1.0" encoding="iso-8859-1"?>
<!-- Uploaded to: SVG Repo, www.svgrepo.com, Generator: SVG Repo Mixer Tools -->
<svg fill="#000000" height="800px" width="800px" version="1.1" id="Layer_1" xmlns="http://www.w3.org/2000/svg" xmlns:xlink="http://www.w3.org/1999/xlink" 
	 viewBox="0 0 512 512" xml:space="preserve">
<g>
	<g>
		<path d="M511.936,267.424c-1.298-57.879-22.545-114.227-59.83-158.661c-43.951-52.379-105.67-84.509-173.786-90.469
			c-68.13-5.958-134.479,14.963-186.855,58.917c-52.38,43.951-84.51,105.67-90.469,173.785
			c-5.96,68.117,14.963,134.478,58.916,186.855l31.798-26.682c-36.823-43.886-54.354-99.483-49.361-156.555
			s31.913-108.781,75.798-145.605c43.886-36.823,99.496-54.355,156.555-49.361c57.07,4.992,108.781,31.913,145.607,75.797
			c61.961,73.843,67.147,178.15,13.951,257.246l-30.568-28.254l3.527,89.071l89.061-3.492l-31.23-28.867
			C496.547,376.628,513.166,322.298,511.936,267.424z"/>
	</g>
</g>
<g>
	<g>
		<path d="M359.67,291.199c-26.498,22.081-61.007,39.336-94.379,56.021c-61.701,30.851-119.979,59.991-119.979,112.889v6.919
			l27.674,27.674h166.046l27.674-27.674V285.029C364.45,287.104,362.113,289.163,359.67,291.199z"/>
	</g>
</g>
<g>
	<g>
		<path d="M339.03,162.61H235.252v-41.511H193.74v41.511h-20.756l-27.674,27.674v181.998c2.255-2.076,4.593-4.135,7.036-6.17
			c26.497-22.081,61.007-39.336,94.379-56.021c61.701-30.851,119.979-59.99,119.979-112.889v-6.919L339.03,162.61z"/>
	</g>
</g>
</svg>