<svg width="51" height="24" viewBox="0 0 51 24" fill="none" xmlns="http://www.w3.org/2000/svg">
<path d="M18.9776 10.5953C19.9945 10.6735 21.0165 10.6529 22.0294 10.5335C22.4699 10.4403 22.9538 9.83805 23.2064 9.30223C24.4716 6.59008 25.6663 3.82294 26.9401 0.954331L27.8751 1.45094C27.1547 3.04733 26.4716 4.52908 25.8105 6.02622C25.1736 7.46603 24.5588 8.91904 23.8736 10.5088L26.2142 10.783C26.9965 10.8744 27.3679 10.1555 27.7547 9.48064C28.7789 7.70091 29.781 5.89919 30.8317 4.14587C31.0142 3.83932 31.3886 3.72198 31.6747 3.51664C31.7304 3.97461 31.7035 4.43886 31.5952 4.88732C30.5624 6.80147 29.4634 8.65402 28.2699 10.7271C29.9428 11.0331 31.3889 11.4078 32.5561 9.51544C33.4629 8.09804 34.4466 6.73133 35.5028 5.42144C36.3917 6.03711 36.2823 6.54407 35.8402 7.11322L32.9789 10.8193C35.2856 12.0366 37.0263 10.5269 38.8115 9.28149C39.1486 8.99349 39.5119 8.7377 39.8967 8.51749C40.1059 8.42684 40.3882 8.62033 40.6395 8.68606C40.5365 9.03216 40.5108 9.53019 40.3171 9.69353C39.6415 10.1634 39.024 10.7116 38.4774 11.3268C39.2461 11.3817 40.0181 11.368 40.7844 11.286C41.2411 11.1298 41.6329 10.8261 41.8981 10.4228C43.3261 8.163 45.1963 6.21528 47.3962 4.69663C48.1402 4.3011 48.9657 4.08342 49.808 4.06068C50.9626 4.02373 51.1925 4.54121 50.82 5.96742C50.5834 6.87119 50.3159 7.7662 50.0219 8.64142C49.2604 10.9088 49.2865 13.3669 50.0961 15.6176C50.3727 16.4391 50.6229 17.276 50.8445 18.1262C51.1769 19.4082 50.8363 20.0411 49.7964 20.1329C48.8832 20.0813 47.9935 19.8236 47.1941 19.379C46.3947 18.9345 45.7064 18.3146 45.1807 17.5661C43.9537 16.2942 42.8982 14.7489 41.7283 13.3845C41.4332 13.0159 41.0193 12.7611 40.5572 12.6635C39.8493 12.6363 39.1404 12.6757 38.4398 12.7812C38.997 14.065 40.5942 13.8136 40.7318 15.9729C38.1208 14.6194 36.0037 11.9144 33.0881 13.1725C34.1327 14.764 35.1729 16.3468 36.1999 17.945C36.0967 18.1414 35.9783 18.3295 35.8459 18.5074C34.7814 17.4164 33.7918 16.2547 32.8837 15.0303C32.5922 14.3769 32.08 13.847 31.437 13.5333C30.794 13.2196 30.0611 13.1422 29.3667 13.3145C29.0081 13.355 28.6463 13.3585 28.287 13.3249C29.4689 15.4121 30.5404 17.3232 31.6317 19.2188C31.9631 19.7978 32.2724 20.3262 31.4182 20.8629C30.6716 19.6366 29.8985 18.3818 29.1387 17.1159C28.8537 16.6426 28.5996 16.1383 28.3256 15.654C26.8189 12.99 26.6756 12.9219 23.8739 13.6487L27.2674 21.2326C27.4355 21.5259 27.569 21.8377 27.6654 22.1618C27.706 22.4214 27.6431 22.6866 27.4902 22.9003C27.3957 22.955 27.2862 22.9783 27.1776 22.9665C27.069 22.9548 26.9669 22.9087 26.8863 22.8351C26.6593 22.5179 26.475 22.1722 26.3383 21.8068C25.2904 19.4749 24.214 17.165 23.2233 14.7933C22.8629 13.9301 22.4723 13.5582 21.7012 13.6651C20.8235 13.7286 19.9426 13.7372 19.0637 13.6911C19.2407 15.6982 19.3537 17.5732 19.5811 19.4238C19.958 22.4706 19.1206 23.9372 16.7387 23.9517C15.6598 23.975 14.5875 23.7787 13.5868 23.3746C9.06221 21.2067 4.8769 18.3922 1.16231 15.0196C0.24894 14.2542 0.406127 13.258 0.739466 12.1756C1.53016 9.77604 2.9728 7.64379 4.90602 6.01729C7.65605 3.26218 11.0974 1.29867 14.8685 0.333067C15.5067 0.200729 16.1578 0.141371 16.8095 0.156138C18.9117 0.205931 19.9365 1.8306 19.6253 4.51931C19.4077 6.40141 19.2232 8.28787 18.9776 10.5953ZM8.99529 10.2354C9.68273 10.2013 10.3864 9.18887 10.3542 8.28108C10.3175 7.30058 9.61556 6.47971 8.86425 6.5381C8.44137 6.63428 8.06903 6.88352 7.81894 7.23783C7.56886 7.59214 7.45871 8.02646 7.50973 8.45713C7.55523 9.43321 8.25497 10.2695 8.99529 10.2354Z" fill="#828181"/>
</svg>
