<svg width="50" height="24" viewBox="0 0 50 24" fill="none" xmlns="http://www.w3.org/2000/svg">
<path d="M31.7267 10.4541C30.7211 10.5271 29.7109 10.5023 28.7102 10.38C28.2751 10.286 27.7993 9.68853 27.5519 9.15777C26.3128 6.47131 25.1437 3.7308 23.8968 0.88963L22.9704 1.37654C23.6757 2.9577 24.3446 4.42538 24.9917 5.90818C25.6151 7.33421 26.2167 8.77318 26.8872 10.3476L24.5723 10.6086C23.7985 10.6956 23.4345 9.9834 23.055 9.31465C22.0502 7.55095 21.0673 5.7656 20.0362 4.02789C19.8571 3.72407 19.4875 3.60648 19.2055 3.40226C19.1485 3.85474 19.1731 4.31378 19.2782 4.75756C20.291 6.65418 21.3695 8.49019 22.5404 10.5446C20.8853 10.8399 19.4543 11.2041 18.3085 9.32848C17.4182 7.92345 16.4516 6.5682 15.4132 5.26881C14.5318 5.87361 14.6378 6.37522 15.0724 6.93974L17.885 10.6156C15.5996 11.8091 13.8853 10.3092 12.1259 9.07041C11.7939 8.78426 11.4359 8.52986 11.0564 8.31052C10.85 8.22001 10.5701 8.41007 10.3214 8.47398C10.4218 8.81655 10.4451 9.30897 10.6358 9.47127C11.3016 9.93864 11.9098 10.4832 12.4474 11.0937C11.6873 11.1446 10.9242 11.1278 10.1671 11.0434C9.71625 10.8871 9.33024 10.5852 9.06986 10.1854C7.66788 7.94541 5.82751 6.01201 3.65936 4.50135C2.92557 4.10717 2.11041 3.88845 1.27786 3.86236C0.136688 3.82089 -0.0928153 4.33145 0.269294 5.74289C0.499359 6.63732 0.759964 7.52321 1.04682 8.38965C1.78989 10.6343 1.75352 13.064 0.94362 15.2854C0.666631 16.0963 0.41569 16.9226 0.192991 17.7621C-0.141095 19.028 0.192894 19.6551 1.22048 19.7503C2.12347 19.7032 3.00406 19.4523 3.79619 19.0162C4.58832 18.5802 5.27141 17.9704 5.79422 17.2327C7.0126 15.9807 8.06266 14.4576 9.22494 13.1139C9.51831 12.7507 9.92855 12.5006 10.3857 12.4061C11.0856 12.3823 11.7862 12.4243 12.4783 12.5315C11.922 13.7982 10.3443 13.5429 10.199 15.6768C12.7858 14.35 14.8902 11.6851 17.7669 12.9413C16.7275 14.5101 15.6925 16.0703 14.6704 17.6458C14.7716 17.8403 14.8878 18.0267 15.0179 18.2033C16.0749 17.1292 17.0582 15.9851 17.961 14.7787C18.2521 14.1341 18.7606 13.6124 19.3976 13.305C20.0346 12.9977 20.7594 12.9243 21.4451 13.0977C21.7994 13.1392 22.1571 13.1442 22.5124 13.1126C21.3351 15.1707 20.2677 17.0553 19.1808 18.9245C18.8507 19.4954 18.5427 20.0164 19.3848 20.5506C20.1281 19.3417 20.8976 18.1045 21.6542 16.8564C21.9379 16.3897 22.1913 15.8924 22.4642 15.4147C23.965 12.7877 24.107 12.721 26.8735 13.4516L23.4864 20.9339C23.319 21.2231 23.1856 21.5308 23.089 21.8508C23.0477 22.1072 23.1088 22.3696 23.259 22.5815C23.3522 22.636 23.4604 22.6595 23.5678 22.6483C23.6752 22.6372 23.7762 22.5921 23.8562 22.5196C24.082 22.207 24.2657 21.8661 24.4023 21.5055C25.4482 19.2048 26.5222 16.926 27.5117 14.5858C27.8717 13.734 28.2594 13.3681 29.0211 13.4771C29.8886 13.5436 30.7593 13.5559 31.6283 13.514C31.4447 15.4974 31.325 17.3504 31.0922 19.1788C30.7066 22.1891 31.5281 23.6424 33.8827 23.6669C34.9491 23.6946 36.01 23.5051 37.0008 23.11C41.4829 20.9863 45.6322 18.222 49.3187 14.9041C50.2248 14.1513 50.0737 13.1658 49.7488 12.0944C48.9775 9.71903 47.5606 7.60506 45.6565 5.98893C42.9498 3.25364 39.5563 1.2979 35.8327 0.327217C35.2023 0.193662 34.5589 0.132195 33.9147 0.144C31.8364 0.184214 30.8164 1.78586 31.1124 4.44506C31.3194 6.30651 31.4938 8.17212 31.7267 10.4541ZM41.596 10.1411C40.9166 10.1045 40.2254 9.10064 40.2611 8.2034C40.3016 7.23431 40.999 6.42586 41.7414 6.48681C42.159 6.58369 42.526 6.83167 42.7717 7.18299C43.0174 7.53431 43.1244 7.96412 43.0722 8.38963C43.023 9.35431 42.3277 10.178 41.596 10.1411Z" fill="#828181"/>
</svg>
