<svg width="51" height="24" viewBox="0 0 51 24" fill="none" xmlns="http://www.w3.org/2000/svg">
<path d="M18.9776 10.5952C19.9945 10.6735 21.0165 10.6528 22.0294 10.5334C22.4699 10.4403 22.9538 9.83799 23.2064 9.30217C24.4716 6.59001 25.6663 3.82288 26.9401 0.95427L27.8751 1.45088C27.1547 3.04727 26.4716 4.52902 25.8105 6.02616C25.1736 7.46597 24.5588 8.91898 23.8736 10.5087L26.2142 10.7829C26.9965 10.8743 27.3679 10.1554 27.7547 9.48057C28.7789 7.70085 29.781 5.89913 30.8317 4.14581C31.0142 3.83926 31.3886 3.72192 31.6747 3.51658C31.7304 3.97455 31.7035 4.4388 31.5952 4.88726C30.5624 6.80141 29.4634 8.65396 28.2699 10.727C29.9428 11.033 31.3889 11.4077 32.5561 9.51538C33.4629 8.09798 34.4466 6.73127 35.5028 5.42137C36.3917 6.03704 36.2823 6.54401 35.8402 7.11316L32.9789 10.8192C35.2856 12.0366 37.0263 10.5268 38.8115 9.28143C39.1486 8.99343 39.5119 8.73764 39.8967 8.51743C40.1059 8.42678 40.3882 8.62027 40.6395 8.686C40.5365 9.0321 40.5108 9.53013 40.3171 9.69347C39.6415 10.1633 39.024 10.7116 38.4774 11.3268C39.2461 11.3816 40.0181 11.3679 40.7844 11.2859C41.2411 11.1297 41.6329 10.8261 41.8981 10.4227C43.3261 8.16294 45.1963 6.21522 47.3962 4.69657C48.1402 4.30104 48.9657 4.08336 49.808 4.06062C50.9626 4.02367 51.1925 4.54115 50.82 5.96735C50.5834 6.87113 50.3159 7.76614 50.0219 8.64136C49.2604 10.9088 49.2865 13.3668 50.0961 15.6175C50.3727 16.439 50.6229 17.2759 50.8445 18.1262C51.1769 19.4081 50.8363 20.041 49.7964 20.1329C48.8832 20.0813 47.9935 19.8235 47.1941 19.379C46.3947 18.9344 45.7064 18.3146 45.1807 17.566C43.9537 16.2942 42.8982 14.7489 41.7283 13.3844C41.4332 13.0158 41.0193 12.761 40.5572 12.6634C39.8493 12.6362 39.1404 12.6756 38.4398 12.7811C38.997 14.0649 40.5942 13.8136 40.7318 15.9728C38.1208 14.6193 36.0037 11.9143 33.0881 13.1724C34.1327 14.764 35.1729 16.3468 36.1999 17.945C36.0967 18.1414 35.9783 18.3294 35.8459 18.5074C34.7814 17.4163 33.7918 16.2546 32.8837 15.0302C32.5922 14.3769 32.08 13.8469 31.437 13.5332C30.794 13.2195 30.0611 13.1421 29.3667 13.3145C29.0081 13.355 28.6463 13.3584 28.287 13.3249C29.4689 15.412 30.5404 17.3231 31.6317 19.2187C31.9631 19.7977 32.2724 20.3261 31.4182 20.8628C30.6716 19.6366 29.8985 18.3817 29.1387 17.1158C28.8537 16.6425 28.5996 16.1383 28.3256 15.6539C26.8189 12.9899 26.6756 12.9218 23.8739 13.6487L27.2674 21.2325C27.4355 21.5258 27.569 21.8377 27.6654 22.1618C27.706 22.4214 27.6431 22.6865 27.4902 22.9002C27.3957 22.955 27.2862 22.9782 27.1776 22.9665C27.069 22.9547 26.9669 22.9087 26.8863 22.835C26.6593 22.5178 26.475 22.1721 26.3383 21.8068C25.2904 19.4748 24.214 17.1649 23.2233 14.7932C22.8629 13.93 22.4723 13.5582 21.7012 13.6651C20.8235 13.7285 19.9426 13.7372 19.0637 13.691C19.2407 15.6981 19.3537 17.5731 19.5811 19.4237C19.958 22.4706 19.1206 23.9371 16.7387 23.9517C15.6598 23.975 14.5875 23.7786 13.5868 23.3746C9.06221 21.2066 4.8769 18.3921 1.16231 15.0196C0.24894 14.2541 0.406127 13.2579 0.739466 12.1755C1.53016 9.77598 2.9728 7.64373 4.90602 6.01723C7.65605 3.26212 11.0974 1.29861 14.8685 0.333006C15.5067 0.200668 16.1578 0.14131 16.8095 0.156077C18.9117 0.20587 19.9365 1.83054 19.6253 4.51925C19.4077 6.40135 19.2232 8.28781 18.9776 10.5952ZM8.99529 10.2353C9.68273 10.2012 10.3864 9.1888 10.3542 8.28101C10.3175 7.30052 9.61556 6.47965 8.86425 6.53804C8.44137 6.63422 8.06903 6.88346 7.81894 7.23777C7.56886 7.59208 7.45871 8.0264 7.50973 8.45707C7.55523 9.43315 8.25497 10.2694 8.99529 10.2353Z" fill="black"/>
</svg>
