<?xml version="1.0"?>
<svg xmlns="http://www.w3.org/2000/svg" version="1" viewBox="0 0 24 24" enable-background="new 0 0 24 24">
    <path d="M 14.65625 1.9375 C 13.1896 2.0027832 11.725 2.5375 10.5 3.5 C 10.6 3.7 10.39375 6.20625 14.09375 9.90625 C 17.69375 13.50625 20.20625 13.40625 20.40625 13.40625 C 22.293244 11.004621 22.467142 7.7141348 20.84375 5.1875 C 20.946602 4.9842659 21 4.7433505 21 4.5 C 21 3.6715729 20.328427 3 19.5 3 C 19.27736 3 19.064991 3.0692303 18.875 3.15625 C 17.602148 2.2908203 16.1229 1.8722168 14.65625 1.9375 z M 9 5.3125 C 7.4 8.0125 7.7 11.6 10 14 C 12.3 16.3 15.89375 16.7 18.59375 15 C 17.29375 14.6 15.2125 13.5875 12.8125 11.1875 C 10.4125 8.7875 9.4 6.7125 9 5.3125 z M 8.09375 13.8125 C 7.49375 14.7125 6.4875 15.8875 6.1875 16.1875 C 5.2875 17.0875 3.6125 16.8875 2.8125 17.6875 C 1.8125 18.6875 1.8125 20.2875 2.8125 21.1875 C 3.8125 22.1875 5.4125 22.1875 6.3125 21.1875 C 7.1125 20.3875 6.8125 18.7125 7.8125 17.8125 C 8.2125 17.4125 9.2875 16.50625 10.1875 15.90625 C 9.6875 15.70625 9.4 15.4 9 15 C 8.6 14.6 8.29375 14.2125 8.09375 13.8125 z"/>
</svg>
