<svg width="175" height="175" viewBox="0 0 175 175" fill="none" xmlns="http://www.w3.org/2000/svg">
<path d="M21.8859 52.3359V45.6094C21.8859 41.5625 25.1672 38.2812 29.214 38.2812H35.9406C45.1266 38.2914 53.9768 41.7362 60.7523 47.9391C68.8644 43.1761 78.1039 40.6722 87.5109 40.6875C97.3 40.6875 106.449 43.3344 114.291 47.9664C121.049 41.7418 129.899 38.2848 139.087 38.2812H145.813C149.86 38.2812 153.141 41.5625 153.141 45.6094V52.3359C153.132 61.7184 149.538 70.7426 143.095 77.5633L160.245 98C162.242 100.368 163.527 103.252 163.953 106.32C164.379 109.388 163.928 112.514 162.652 115.336C159.155 123.142 154.465 130.356 148.75 136.719H26.2609C20.5536 130.372 15.8675 123.177 12.3703 115.391C9.79997 109.648 10.7297 102.922 14.7765 98.0547L31.9484 77.5742C25.4971 70.7534 21.8973 61.7244 21.8859 52.3359Z" fill="#9B9B9B"/>
<path d="M127.433 58.9531C127.816 59.3359 128.198 59.7734 128.526 60.2109L137.419 70.8039C141.862 65.6973 144.317 59.16 144.331 52.3906V49C144.331 47.9609 143.511 47.1406 142.472 47.1406H139.081C132.752 47.1277 126.607 49.2706 121.658 53.2164C123.727 54.9779 125.658 56.8958 127.433 58.9531ZM53.3585 53.1727C48.4023 49.2425 42.2659 47.0981 35.9406 47.0859H32.5499C31.5109 47.0859 30.6906 47.9063 30.6906 48.9453V52.3359C30.6906 59.1172 33.1952 65.6742 37.6577 70.7547L46.4952 60.2109C46.6593 59.9922 46.8398 59.7734 47.0148 59.5547C47.1952 59.3359 47.3702 59.1172 47.5343 58.8984C49.3274 56.8446 51.2745 54.9305 53.3585 53.1727Z" fill="#636363"/>
<path d="M64.4328 84.7656H63.9953C57.925 84.7656 52.2375 87.4453 48.3 92.0391L34.1359 108.336C30.8222 112.14 28.3768 116.62 26.9696 121.465C25.5625 126.31 25.2273 131.403 25.9875 136.391C33.2029 144.553 41.9734 151.194 51.786 155.927C61.5986 160.66 72.2563 163.388 83.1359 163.953L84.1312 163.991C84.2953 163.991 84.4593 164.002 84.6125 164.008C85.5968 164.041 86.5648 164.062 87.5109 164.062C88.5008 164.062 89.5179 164.035 90.5187 164.002L91.6672 163.959L91.8312 163.953L92.225 163.931C103.063 163.339 113.676 160.599 123.447 155.871C133.218 151.144 141.953 144.522 149.144 136.391C150.675 126.273 147.722 116.102 140.995 108.336L126.831 92.0391C124.897 89.7636 122.492 87.9349 119.782 86.6791C117.072 85.4234 114.122 84.7705 111.136 84.7656H110.698C99.5968 84.9844 90.5734 94.2812 90.5187 105.547V117.031H84.6125V105.547C84.5578 94.2812 75.5343 84.9844 64.4328 84.7656Z" fill="#D3D3D3"/>
<path d="M55.0266 97.7812C57.2141 95.1562 60.55 93.5156 64.2687 93.5703C70.6672 93.6797 75.7531 99.0937 75.7531 105.547V117.223C70.8585 117.898 66.3734 120.321 63.1265 124.045C59.8796 127.77 58.0903 132.543 58.0891 137.484C58.0896 144.172 60.6174 150.612 65.1659 155.515C69.7144 160.417 75.9476 163.42 82.6164 163.92C80.3201 163.786 78.0303 163.556 75.7531 163.231V163.242C65.3993 161.779 55.4267 158.325 46.3859 153.07V153.037C33.0859 144.654 30.3625 126.175 40.8078 114.133L55.0266 97.7812ZM92.5531 163.909C94.85 163.767 97.1305 163.527 99.3781 163.198V163.242C109.441 161.82 118.956 158.539 127.488 153.781C141.87 145.797 145.097 126.547 134.323 114.133L120.105 97.7812C118.977 96.4332 117.561 95.3551 115.962 94.6264C114.362 93.8977 112.62 93.5368 110.862 93.5703C104.464 93.6797 99.3781 99.0937 99.3781 105.547V117.245C104.239 117.956 108.681 120.392 111.894 124.108C115.107 127.824 116.876 132.572 116.878 137.484C116.878 151.353 106.263 162.843 92.5531 163.909Z" fill="#636363"/>
<path d="M65.625 98.4375C64.1746 98.4375 62.7836 99.0137 61.758 100.039C60.7324 101.065 60.1562 102.456 60.1562 103.906V109.375C60.1562 110.825 60.7324 112.216 61.758 113.242C62.7836 114.268 64.1746 114.844 65.625 114.844C67.0754 114.844 68.4664 114.268 69.492 113.242C70.5176 112.216 71.0938 110.825 71.0938 109.375V103.906C71.0938 102.456 70.5176 101.065 69.492 100.039C68.4664 99.0137 67.0754 98.4375 65.625 98.4375ZM109.375 98.4375C107.925 98.4375 106.534 99.0137 105.508 100.039C104.482 101.065 103.906 102.456 103.906 103.906V109.375C103.906 110.825 104.482 112.216 105.508 113.242C106.534 114.268 107.925 114.844 109.375 114.844C110.825 114.844 112.216 114.268 113.242 113.242C114.268 112.216 114.844 110.825 114.844 109.375V103.906C114.844 102.456 114.268 101.065 113.242 100.039C112.216 99.0137 110.825 98.4375 109.375 98.4375ZM95.7141 151.375C92.4328 151.375 89.5344 149.953 87.5109 147.656C85.4875 149.953 82.5891 151.375 79.3078 151.375C73.2922 151.375 68.3703 146.453 68.3703 140.438C68.3703 138.906 69.5734 137.703 71.1047 137.703C72.6359 137.703 73.8391 138.906 73.8391 140.438C73.8391 143.445 76.3 145.906 79.3078 145.906C82.3156 145.906 84.7766 143.445 84.7766 140.438C84.7766 138.906 85.9797 137.703 87.5109 137.703C89.0422 137.703 90.2453 138.906 90.2453 140.438C90.2453 143.445 92.7063 145.906 95.7141 145.906C98.7219 145.906 101.183 143.445 101.183 140.438C101.183 138.906 102.386 137.703 103.917 137.703C105.448 137.703 106.652 138.906 106.652 140.438C106.652 146.453 101.73 151.375 95.7141 151.375ZM83.7977 133L76.9617 126.109C73.6258 122.773 75.9773 117.031 80.6805 117.031H94.3523C99.0555 117.031 101.407 122.773 98.0711 126.109L91.2352 133C89.2117 135.078 85.8758 135.078 83.7977 133Z" fill="#212121"/>
</svg>
