<svg width="129" height="73" viewBox="0 0 129 73" fill="none" xmlns="http://www.w3.org/2000/svg">
<g clip-path="url(#clip0_37_426)">
<path d="M12.4988 55.6344C13.0289 55.5825 13.5528 55.4792 14.063 55.326C14.2812 55.2381 14.4755 54.8845 14.5569 54.5859C14.9619 53.0761 15.3257 51.5444 15.7209 49.9533L16.2469 50.124C16.021 51.0105 15.8039 51.8347 15.5996 52.6647C15.4024 53.4631 15.2178 54.2662 15.0095 55.1461L16.2383 55.075C16.649 55.0511 16.7749 54.6477 16.9127 54.2655C17.2783 53.2572 17.6305 52.2395 18.0121 51.2424C18.0782 51.0681 18.2601 50.9738 18.3887 50.8423C18.4589 51.0728 18.4871 51.3141 18.472 51.5546C18.1142 52.6328 17.7168 53.6854 17.2907 54.86C18.179 54.8658 18.9568 54.9274 19.3858 53.8482C19.7238 53.0369 20.1059 52.2447 20.5305 51.4752C21.0436 51.7113 21.0332 51.982 20.8574 52.3149L19.7214 54.4806C21.0183 54.8978 21.7769 53.9634 22.5824 53.161C22.7297 52.9823 22.8934 52.8177 23.0714 52.6696C23.1708 52.604 23.3336 52.6779 23.4688 52.689C23.4471 52.8764 23.479 53.1349 23.3942 53.2365C23.0893 53.5394 22.8213 53.8774 22.5959 54.2434C22.9963 54.2019 23.3922 54.1249 23.7789 54.0133C23.9997 53.8915 24.1737 53.6998 24.2736 53.4683C24.8034 52.1764 25.5889 51.005 26.5829 50.0244C26.9298 49.7535 27.3347 49.5667 27.7659 49.4787C28.3565 49.355 28.5217 49.6004 28.4593 50.3678C28.4195 50.8542 28.363 51.3388 28.2911 51.8157C28.1049 53.0511 28.3411 54.3131 28.9615 55.3975C29.1783 55.795 29.3829 56.2029 29.5739 56.6202C29.8611 57.2495 29.7432 57.6059 29.2166 57.7474C28.7422 57.8037 28.2611 57.7517 27.8096 57.5955C27.3581 57.4392 26.9479 57.1828 26.6096 56.8453C25.8632 56.3023 25.1802 55.6031 24.4547 55.0072C24.2695 54.8443 24.0335 54.7508 23.7869 54.7425C23.4203 54.7926 23.0592 54.8771 22.7084 54.9949C23.1114 55.6048 23.9102 55.3308 24.1766 56.429C22.7109 55.9694 21.3767 54.7698 19.9909 55.6812C20.6725 56.4053 21.351 57.1252 22.0242 57.8542C21.9889 57.9646 21.945 58.0721 21.8931 58.1756C21.2466 57.7109 20.6322 57.203 20.0541 56.6554C19.8449 56.3458 19.5334 56.1196 19.1742 56.0165C18.815 55.9134 18.431 55.94 18.0894 56.0916C17.9086 56.1449 17.7228 56.1795 17.535 56.1948C18.3321 57.1613 19.0565 58.0473 19.7897 58.9235C20.0126 59.1913 20.2196 59.4351 19.8289 59.7886C19.3337 59.2255 18.8223 58.65 18.3167 58.0677C18.1272 57.85 17.9508 57.6137 17.7659 57.3894C16.7494 56.1555 16.6695 56.1335 15.2942 56.7613L17.7271 60.3549C17.8402 60.4906 17.9372 60.6389 18.0161 60.7969C18.0605 60.9268 18.0522 61.0689 17.9929 61.1926C17.9493 61.2294 17.895 61.2512 17.8381 61.2551C17.7812 61.2589 17.7245 61.2444 17.6764 61.2138C17.5308 61.0712 17.4047 60.9101 17.3013 60.7346C16.5509 59.6299 15.7878 58.5393 15.0632 57.4091C14.7996 56.9977 14.565 56.8418 14.178 56.9667C13.7322 57.0789 13.2799 57.1631 12.8236 57.219C13.0966 58.2355 13.3246 59.1898 13.6094 60.1211C14.0794 61.6543 13.7815 62.4846 12.5575 62.7079C12.0047 62.8177 11.4353 62.8139 10.8839 62.6967C8.35991 61.9916 5.95188 60.9231 3.7354 59.5249C3.19618 59.2139 3.18675 58.6872 3.26012 58.1002C3.44939 56.7942 3.99825 55.5666 4.8453 54.5547C6.01024 52.8882 7.60254 51.5663 9.45489 50.7278C9.77119 50.6019 10.1008 50.5123 10.4373 50.4609C11.5232 50.296 12.1976 51.0388 12.2813 52.4501C12.3399 53.438 12.416 54.4251 12.4988 55.6344ZM7.33114 56.3539C7.68168 56.2741 7.95187 55.6895 7.85304 55.2255C7.7453 54.7244 7.30983 54.3658 6.92865 54.4639C6.71983 54.5517 6.55089 54.7137 6.45435 54.9186C6.35782 55.1235 6.34052 55.3569 6.40579 55.5738C6.51767 56.0718 6.95341 56.4386 7.33114 56.3539Z" fill="black"/>
</g>
<g clip-path="url(#clip1_37_426)">
<path d="M116.846 54.7782C116.314 54.7564 115.785 54.6829 115.267 54.5588C115.044 54.4834 114.83 54.1413 114.732 53.8478C114.242 52.3633 113.792 50.8547 113.308 49.2885L112.792 49.4887C113.068 50.3609 113.331 51.1715 113.582 51.9887C113.824 52.7746 114.054 53.566 114.312 54.4327L113.081 54.4312C112.669 54.4306 112.521 54.0349 112.362 53.6611C111.94 52.6751 111.53 51.679 111.093 50.705C111.017 50.5348 110.83 50.4509 110.694 50.3269C110.637 50.561 110.623 50.8035 110.652 51.0427C111.07 52.099 111.526 53.1274 112.018 54.276C111.131 54.332 110.358 54.4376 109.869 53.3844C109.486 52.5935 109.059 51.8242 108.592 51.0798C108.093 51.3446 108.119 51.6143 108.313 51.9367L109.57 54.0347C108.298 54.5246 107.488 53.6346 106.639 52.8789C106.481 52.7089 106.309 52.5539 106.123 52.416C106.02 52.3562 105.861 52.4392 105.727 52.4579C105.759 52.6437 105.742 52.9036 105.832 53.0002C106.154 53.2854 106.441 53.6077 106.686 53.9604C106.284 53.9416 105.885 53.8872 105.492 53.7976C105.265 53.6885 105.08 53.5069 104.968 53.2814C104.366 52.0216 103.515 50.8965 102.467 49.9736C102.106 49.7228 101.691 49.5592 101.255 49.4957C100.659 49.4056 100.507 49.6599 100.613 50.4226C100.68 50.9059 100.764 51.3866 100.863 51.8586C101.119 53.0815 100.954 54.3549 100.396 55.4727C100.202 55.8818 100.021 56.3006 99.8539 56.728C99.6028 57.3725 99.7406 57.7217 100.274 57.8332C100.751 57.8625 101.229 57.7835 101.67 57.602C102.112 57.4204 102.508 57.1412 102.826 56.7852C103.541 56.2008 104.183 55.4641 104.874 54.8281C105.049 54.655 105.28 54.5483 105.525 54.526C105.894 54.5554 106.26 54.6194 106.617 54.7171C106.249 55.3488 105.436 55.1204 105.232 56.2319C106.669 55.6902 107.933 54.417 109.368 55.2486C108.729 56.0101 108.092 56.7672 107.461 57.5332C107.503 57.6414 107.553 57.7462 107.61 57.8466C108.23 57.346 108.814 56.8042 109.36 56.2249C109.552 55.9039 109.85 55.6604 110.203 55.5372C110.556 55.414 110.941 55.4188 111.29 55.5508C111.474 55.5938 111.661 55.6179 111.85 55.6225C111.108 56.6326 110.435 57.5581 109.753 58.4743C109.545 58.7543 109.352 59.0094 109.763 59.3403C110.225 58.75 110.703 58.1466 111.175 57.5366C111.352 57.3086 111.515 57.0627 111.686 56.8282C112.632 55.5389 112.71 55.5124 114.119 56.0614L111.893 59.7869C111.788 59.9287 111.699 60.0823 111.629 60.2445C111.592 60.3766 111.609 60.518 111.675 60.6383C111.721 60.6725 111.776 60.6912 111.833 60.6918C111.89 60.6924 111.946 60.6748 111.992 60.6415C112.129 60.4909 112.246 60.3229 112.34 60.1418C113.026 58.9965 113.726 57.8645 114.386 56.6951C114.626 56.2694 114.851 56.1006 115.245 56.2033C115.696 56.2901 116.153 56.3487 116.611 56.3787C116.396 57.409 116.222 58.3746 115.991 59.3206C115.608 60.8779 115.953 61.69 117.187 61.8438C117.745 61.9221 118.314 61.8861 118.858 61.738C121.338 60.8912 123.681 59.6883 125.815 58.167C126.336 57.826 126.316 57.2996 126.209 56.7177C125.946 55.4245 125.329 54.2299 124.426 53.2675C123.169 51.6696 121.504 50.4398 119.608 49.7074C119.285 49.5996 118.95 49.5288 118.612 49.4964C117.518 49.3932 116.887 50.173 116.883 51.5868C116.88 52.5764 116.86 53.5663 116.846 54.7782ZM122.046 55.2044C121.692 55.1445 121.389 54.5762 121.461 54.1073C121.54 53.6009 121.955 53.2182 122.341 53.2947C122.554 53.3705 122.732 53.5227 122.84 53.7218C122.948 53.9209 122.979 54.153 122.926 54.3732C122.842 54.8768 122.428 55.2676 122.046 55.2044Z" fill="black"/>
</g>
<path d="M58.2772 11.3157C54.1136 9.38313 50.8642 5.90452 49.2165 1.61582C49.0186 1.03521 49.2412 0.845338 49.9805 0.729765C51.2874 0.578379 52.6115 0.730929 53.8499 1.17555C54.5266 1.38314 55.191 1.62936 55.8396 1.91301C56.4042 2.17057 57.0195 2.29763 57.6398 2.28476C58.2602 2.2719 58.8697 2.11946 59.4232 1.83871C60.3631 1.39293 61.2782 0.916883 62.251 0.517882C63.0027 0.183046 63.8152 0.00682214 64.6379 0.000194183C65.4606 -0.00643377 66.2759 0.156676 67.0328 0.479358C69.9623 1.74137 73.2265 1.99682 76.3162 1.20582C77.0909 1.03019 77.8756 0.901537 78.6658 0.820572C80.0839 0.677482 80.4824 1.05172 80.0262 2.03133C78.3742 5.61187 75.7179 8.63402 72.3808 10.7296C72.1747 10.8616 72.007 11.0267 71.6195 11.3349C71.9181 11.4597 72.2082 11.6041 72.488 11.767C79.2755 16.0307 84.9379 21.8684 88.9962 28.7864C90.5278 31.7159 91.4205 34.9377 91.6152 38.2386C91.8587 41.2779 91.987 44.3253 91.9999 47.3744C92.0078 49.879 91.388 52.3455 90.1971 54.5481C88.1717 58.3042 84.2913 60.2305 79.089 60.8276C77.9221 60.9443 76.7496 60.9958 75.5769 60.9817C68.2173 60.9954 60.8577 61.0174 53.4981 60.9762C49.8305 61.1195 46.207 60.1342 43.1156 58.1529C40.8882 56.5784 39.3295 54.2266 38.746 51.5597C37.9447 48.0037 37.7874 44.3324 38.2815 40.7207C38.4521 38.316 38.7799 35.9252 39.2626 33.5634C40.6931 28.5731 43.4316 24.0571 47.1938 20.4844C50.4444 17.0724 54.0884 14.0593 58.0491 11.5083C58.1288 11.4486 58.205 11.3843 58.2772 11.3157ZM65.5159 24.9863C66.6819 20.6872 67.0856 16.2167 66.7086 11.778C66.6811 11.3349 66.3925 11.1863 65.8182 11.2084C65.0781 11.2667 64.3344 11.263 63.5949 11.1974C62.6442 11.0461 61.6709 11.1356 60.7637 11.4576C59.8564 11.7796 59.0441 12.324 58.4009 13.041C53.0909 17.9779 49.8029 24.7145 49.1753 31.9427C49.0928 32.7957 49.1643 33.6597 49.1643 34.7054C49.2577 34.4055 49.3017 34.2816 49.3319 34.1551C50.416 29.8899 52.0932 25.7984 54.3143 22.0006C56.4634 18.144 59.4753 14.8381 63.114 12.3421C63.3503 12.1852 63.6086 12.0476 63.8615 11.9018L64.1912 11.9651L65.5159 24.9863ZM66.9586 11.3019C78.0942 20.8229 82.4308 32.3169 84.764 44.4218C84.8072 43.9405 84.8163 43.4569 84.7915 42.9743C84.6129 40.5528 84.5304 38.1258 84.2034 35.7153C83.4541 29.9098 81.3139 24.3718 77.965 19.5736C75.988 16.7457 73.5656 14.2579 70.7923 12.2072C70.2676 11.7683 69.6479 11.4579 68.9824 11.3007C68.3169 11.1436 67.624 11.144 66.9586 11.3019Z" fill="black"/>
<defs>
<clipPath id="clip0_37_426">
<rect width="27.6228" height="27.6228" fill="white" transform="translate(0 44.8329) rotate(-10.0764)"/>
</clipPath>
<clipPath id="clip1_37_426">
<rect width="27.6228" height="27.6228" fill="white" transform="matrix(-0.992893 -0.119008 -0.119008 0.992893 128.714 43.2874)"/>
</clipPath>
</defs>
</svg>
